<?xml version="1.0" encoding="utf-8"?>
<!-- Generator: Adobe Illustrator 21.0.0, SVG Export Plug-In . SVG Version: 6.00 Build 0)  -->
<svg version="1.1" id="Capa_1" xmlns="http://www.w3.org/2000/svg" xmlns:xlink="http://www.w3.org/1999/xlink" x="0px" y="0px"
	 viewBox="0 0 73.5 73.5" style="enable-background:new 0 0 73.5 73.5;" xml:space="preserve">
<style type="text/css">
	.st0{opacity:0.25;fill:#F375D9;}
	.st1{fill:#606060;}
	.st2{opacity:0.5;fill:#606060;}
	.st3{fill:url(#SVGID_1_);}
	.st4{fill:#F9F9F9;}
	.st5{fill:url(#SVGID_2_);}
	.st6{fill:url(#SVGID_3_);}
	.st7{fill:url(#SVGID_4_);}
	.st8{fill:url(#SVGID_5_);}
	.st9{fill:url(#SVGID_6_);}
	.st10{fill:url(#SVGID_7_);}
	.st11{fill:url(#SVGID_8_);}
	.st12{fill:url(#SVGID_9_);}
	.st13{fill:url(#SVGID_10_);}
	.st14{fill:url(#SVGID_11_);}
	.st15{fill:url(#SVGID_12_);}
	.st16{fill:url(#SVGID_13_);}
	.st17{fill:url(#SVGID_14_);}
	.st18{fill:url(#SVGID_15_);}
	.st19{fill:url(#SVGID_16_);}
	.st20{fill:url(#SVGID_17_);}
	.st21{fill:url(#SVGID_18_);}
	.st22{fill:url(#SVGID_19_);}
	.st23{fill:url(#SVGID_20_);}
	.st24{fill:url(#SVGID_21_);}
	.st25{fill:url(#SVGID_22_);}
	.st26{fill:url(#SVGID_23_);}
	.st27{fill:url(#SVGID_24_);}
	.st28{fill:url(#SVGID_25_);}
	.st29{fill:url(#SVGID_26_);}
	.st30{fill:url(#SVGID_27_);}
	.st31{fill:url(#SVGID_28_);}
	.st32{fill:url(#SVGID_29_);}
	.st33{fill:url(#SVGID_30_);}
	.st34{fill:url(#SVGID_31_);}
	.st35{fill:url(#SVGID_32_);}
	.st36{fill:url(#SVGID_33_);}
	.st37{fill:url(#SVGID_34_);}
	.st38{fill:url(#SVGID_35_);}
	.st39{fill:url(#SVGID_36_);}
	.st40{fill:url(#SVGID_37_);}
	.st41{fill:url(#SVGID_38_);}
	.st42{fill:url(#SVGID_39_);}
	.st43{fill:url(#SVGID_40_);}
	.st44{fill:url(#SVGID_41_);}
	.st45{fill:url(#SVGID_42_);}
	.st46{fill:url(#SVGID_43_);}
	.st47{fill:url(#SVGID_44_);}
	.st48{fill:url(#SVGID_45_);}
	.st49{fill:url(#SVGID_46_);}
	.st50{fill:url(#SVGID_47_);}
	.st51{fill:url(#SVGID_48_);}
	.st52{fill:url(#SVGID_49_);}
	.st53{fill:url(#SVGID_50_);}
	.st54{fill:url(#SVGID_51_);}
	.st55{fill:url(#SVGID_52_);}
	.st56{fill:url(#SVGID_53_);}
	.st57{fill:url(#SVGID_54_);}
	.st58{fill:url(#SVGID_55_);}
	.st59{fill:url(#SVGID_56_);}
	.st60{fill:url(#SVGID_57_);}
	.st61{fill:url(#SVGID_58_);}
	.st62{fill:url(#SVGID_59_);}
	.st63{fill:url(#SVGID_60_);}
	.st64{fill:url(#SVGID_61_);}
	.st65{fill:url(#SVGID_62_);}
	.st66{fill:url(#SVGID_63_);}
	.st67{fill:url(#SVGID_64_);}
	.st68{fill:url(#SVGID_65_);}
	.st69{fill:url(#SVGID_66_);}
	.st70{fill:url(#SVGID_67_);}
	.st71{fill:url(#SVGID_68_);}
	.st72{fill:url(#SVGID_69_);}
	.st73{fill:url(#SVGID_70_);}
	.st74{fill:url(#SVGID_71_);}
	.st75{fill:url(#SVGID_72_);}
	.st76{fill:url(#SVGID_73_);}
	.st77{fill:url(#SVGID_74_);}
	.st78{fill:url(#SVGID_75_);}
	.st79{fill:url(#SVGID_76_);}
	.st80{fill:url(#SVGID_77_);}
	.st81{fill:url(#SVGID_78_);}
	.st82{fill:url(#SVGID_79_);}
	.st83{fill:url(#SVGID_80_);}
	.st84{fill:url(#SVGID_81_);}
	.st85{fill:url(#SVGID_82_);}
	.st86{fill:url(#SVGID_83_);}
	.st87{fill:url(#SVGID_84_);}
	.st88{fill:url(#SVGID_85_);}
	.st89{fill:url(#SVGID_86_);}
	.st90{fill:url(#SVGID_87_);}
	.st91{fill:url(#SVGID_88_);}
	.st92{fill:url(#SVGID_89_);}
	.st93{fill:url(#SVGID_90_);}
	.st94{fill:url(#SVGID_91_);}
	.st95{fill:url(#SVGID_92_);}
	.st96{fill:url(#SVGID_93_);}
	.st97{fill:url(#SVGID_94_);}
	.st98{fill:url(#SVGID_95_);}
	.st99{fill:url(#SVGID_96_);}
	.st100{fill:url(#SVGID_97_);}
	.st101{fill:url(#SVGID_98_);}
	.st102{fill:url(#SVGID_99_);}
	.st103{fill:url(#SVGID_100_);}
	.st104{fill:url(#SVGID_101_);}
	.st105{fill:url(#SVGID_102_);}
	.st106{fill:url(#SVGID_103_);}
	.st107{fill:url(#SVGID_104_);}
	.st108{fill:url(#SVGID_105_);}
	.st109{fill:url(#SVGID_106_);}
	.st110{fill:url(#SVGID_107_);}
	.st111{fill:url(#SVGID_108_);}
	.st112{fill:url(#SVGID_109_);}
	.st113{fill:url(#SVGID_110_);}
	.st114{fill:url(#SVGID_111_);}
	.st115{fill:url(#SVGID_112_);}
	.st116{fill:url(#SVGID_113_);}
	.st117{fill:url(#SVGID_114_);}
	.st118{fill:url(#SVGID_115_);}
	.st119{fill:url(#SVGID_116_);}
	.st120{fill:url(#SVGID_117_);}
	.st121{fill:url(#SVGID_118_);}
	.st122{fill:url(#SVGID_119_);}
	.st123{fill:url(#SVGID_120_);}
	.st124{fill:url(#SVGID_121_);}
	.st125{fill:url(#SVGID_122_);}
	.st126{fill:url(#SVGID_123_);}
	.st127{fill:url(#SVGID_124_);}
	.st128{fill:url(#SVGID_125_);}
	.st129{fill:url(#SVGID_126_);}
	.st130{fill:url(#SVGID_127_);}
	.st131{fill:url(#SVGID_128_);}
	.st132{fill:url(#SVGID_129_);}
	.st133{fill:url(#SVGID_130_);}
	.st134{fill:url(#SVGID_131_);}
	.st135{fill:url(#SVGID_132_);}
	.st136{fill:url(#SVGID_133_);}
	.st137{fill:url(#SVGID_134_);}
	.st138{fill:url(#SVGID_135_);}
	.st139{fill:url(#SVGID_136_);}
	.st140{fill:url(#SVGID_137_);}
	.st141{fill:url(#SVGID_138_);}
	.st142{fill:url(#SVGID_139_);}
	.st143{fill:url(#SVGID_140_);}
	.st144{fill:url(#SVGID_141_);}
	.st145{fill:url(#SVGID_142_);}
	.st146{fill:url(#SVGID_143_);}
	.st147{fill:url(#SVGID_144_);}
	.st148{fill:url(#SVGID_145_);}
	.st149{fill:url(#SVGID_146_);}
	.st150{fill:url(#SVGID_147_);}
	.st151{fill:url(#SVGID_148_);}
	.st152{fill:url(#SVGID_149_);}
	.st153{fill:url(#SVGID_150_);}
	.st154{fill:#FFFFFF;stroke:#000000;stroke-width:5;stroke-miterlimit:10;}
	.st155{fill:#AE00B8;}
	.st156{fill:#FFFFFF;stroke:#F375D9;stroke-width:0.5;stroke-miterlimit:10;}
	.st157{stroke:#000000;stroke-miterlimit:10;}
	.st158{opacity:0.35;fill:#606060;}
	.st159{stroke:#FFFFFF;stroke-width:5;stroke-miterlimit:10;}
	.st160{clip-path:url(#SVGID_154_);}
	.st161{fill:#FAFAFA;}
	.st162{fill:url(#SVGID_157_);}
	.st163{fill:url(#SVGID_158_);}
	.st164{fill:url(#SVGID_159_);}
	.st165{fill:url(#SVGID_160_);}
	.st166{fill:url(#SVGID_161_);}
	.st167{fill:url(#SVGID_162_);}
	.st168{opacity:0.3;fill:#FFFFFF;}
	.st169{fill:url(#SVGID_163_);}
	.st170{fill:url(#SVGID_164_);}
	.st171{fill:url(#SVGID_165_);}
	.st172{fill:#FFE673;}
	.st173{fill:#FFEB8E;}
	.st174{fill:#F375D9;}
	.st175{fill:#E1A470;}
	.st176{fill:#F0B885;}
	.st177{fill:#D4975C;}
	.st178{fill:url(#SVGID_166_);}
	.st179{fill:#FFFFFF;}
	.st180{fill:#D5F3FB;}
	.st181{fill:#E7F7FB;}
	.st182{fill:url(#SVGID_167_);}
	.st183{fill:#959595;}
	.st184{fill:#C7C7C7;}
	.st185{fill:url(#SVGID_168_);}
	.st186{fill:url(#SVGID_169_);}
	.st187{fill:url(#SVGID_170_);}
	.st188{fill:#F0F0F3;}
	.st189{fill:#E1DEF3;}
	.st190{fill:url(#SVGID_171_);}
	.st191{fill:url(#SVGID_172_);}
	.st192{fill:url(#SVGID_173_);}
	.st193{fill:url(#SVGID_174_);}
	.st194{fill:url(#SVGID_175_);}
	.st195{fill:url(#SVGID_176_);}
	.st196{fill:url(#SVGID_177_);}
	.st197{fill:url(#SVGID_178_);}
	.st198{fill:url(#SVGID_179_);}
	.st199{fill:url(#SVGID_180_);}
	.st200{fill:url(#SVGID_181_);}
	.st201{fill:url(#SVGID_182_);}
	.st202{fill:url(#SVGID_183_);}
	.st203{fill:url(#SVGID_184_);}
	.st204{clip-path:url(#SVGID_186_);}
	.st205{clip-path:url(#SVGID_190_);}
	.st206{fill:url(#SVGID_197_);}
	.st207{fill:url(#SVGID_198_);}
	.st208{fill:url(#SVGID_199_);}
	.st209{fill:url(#SVGID_200_);}
	.st210{fill:url(#SVGID_201_);}
	.st211{fill:url(#SVGID_202_);}
	.st212{fill:url(#SVGID_203_);}
	.st213{fill:url(#SVGID_204_);}
	.st214{clip-path:url(#SVGID_206_);}
	.st215{clip-path:url(#SVGID_210_);}
	.st216{clip-path:url(#SVGID_216_);}
	.st217{fill:#00C700;}
	.st218{fill:url(#SVGID_219_);}
	.st219{fill:url(#SVGID_220_);}
	.st220{fill:#EBF1FF;}
	.st221{fill:url(#SVGID_221_);}
	.st222{fill:url(#SVGID_222_);}
	.st223{fill:#DFDFDF;}
	.st224{fill:url(#SVGID_223_);}
	.st225{clip-path:url(#SVGID_225_);}
	.st226{clip-path:url(#SVGID_229_);}
</style>
<g>
	<g>
		<defs>
			<rect id="SVGID_232_" x="-761.1" y="-60.9" width="357" height="129"/>
		</defs>
		<clipPath id="SVGID_1_">
			<use xlink:href="#SVGID_232_"  style="overflow:visible;"/>
		</clipPath>
		<g transform="matrix(1 0 0 1 0 0)" style="clip-path:url(#SVGID_1_);">
			
				<image style="overflow:visible;" width="1597" height="332" xlink:href="../el-viaje-del-emp.png"  transform="matrix(0.6516 0 0 0.6516 -885.3385 -100.9984)">
			</image>
		</g>
	</g>
</g>
<g>
	<path d="M36.7,65.5c-3.7,0-7.4,0.1-11.1,0c-3.2-0.1-6.3-0.5-9.2-2c-4.3-2.2-6.8-5.8-7.9-10.5C8.2,51.2,8,49.3,8,47.5
		c0-7.3,0-14.7,0-22c0-3.4,0.6-6.7,2.4-9.6c2.7-4.6,6.9-6.9,12.1-7.5C28.7,7.7,34.9,8.1,41,8c3.2,0,6.5,0.1,9.7,0.4
		c8,0.7,13.8,6.7,14.4,14.8c0.6,7.9,0.3,15.9,0.3,23.8c0,3.1-0.3,6.1-1.5,9c-2.2,5-6,7.9-11.3,9.1c-1.8,0.4-3.6,0.5-5.4,0.6
		C43.7,65.6,40.2,65.5,36.7,65.5C36.7,65.5,36.7,65.5,36.7,65.5z M59.9,36.4c0-4.4,0.2-9.2-0.5-14c-0.6-3.9-2.6-6.6-6.5-8
		c-2.6-0.9-5.4-0.8-8.1-0.9c-5.4-0.1-10.9-0.1-16.3,0c-2.1,0-4.2,0.1-6.3,0.4c-4,0.7-6.9,3-8.1,7.1c-0.7,2.7-0.7,5.4-0.8,8.1
		c-0.1,5.1-0.1,10.1,0,15.2c0.1,2.4,0,4.8,0.5,7.2c0.9,4.1,3.3,6.8,7.5,7.8c2.7,0.7,5.4,0.6,8,0.6c6.6,0.2,13.2,0.2,19.8-0.2
		c1.5-0.1,3-0.4,4.4-1c4.2-1.8,5.8-5.2,6.1-9.4C60,45.2,59.9,41,59.9,36.4z"/>
	<path d="M36.6,51.7c-8.2,0-14.8-6.7-14.8-14.9c0-7.9,6.3-14.9,14.9-14.9c8.2,0,14.9,6.5,14.9,14.8C51.6,45.2,44.7,51.8,36.6,51.7z
		 M27.4,36.7c0,5.3,3.9,9.2,9.1,9.4c5.1,0.2,9.5-4.1,9.5-9.2c0-5.2-4.1-9.5-9.2-9.5C31.5,27.4,27.4,31.5,27.4,36.7z"/>
	<path d="M48.3,21.5c0-1.9,1.7-3.6,3.6-3.6c2,0,3.6,1.6,3.6,3.6c0,2-1.7,3.7-3.7,3.7C50,25.1,48.3,23.4,48.3,21.5z"/>
</g>
</svg>
